<svg width="1360" height="622" viewBox="0 0 1360 622" fill="none" xmlns="http://www.w3.org/2000/svg">
<g id="Group 1219">
<ellipse id="Ellipse 1" rx="4.78528" ry="2.20256" transform="matrix(0.660745 -0.75061 0.559835 0.828604 645.328 233.004)" fill="#11ECE5"/>
<path id="Polygon 1" d="M812.849 43.6637L646.381 235.024L643.948 231.328L812.849 43.6637Z" fill="#11ECE5"/>
</g>
<g id="Group 1225">
<ellipse id="Ellipse 1_2" rx="4.78528" ry="2.20256" transform="matrix(0.660745 -0.75061 0.559835 0.828604 645.328 233.004)" fill="#11ECE5"/>
<path id="Polygon 1_2" d="M812.849 43.6637L646.381 235.024L643.948 231.328L812.849 43.6637Z" fill="#11ECE5"/>
</g>
<g id="Group 1283">
<ellipse id="Ellipse 1_3" rx="4.78528" ry="2.20256" transform="matrix(0.660745 -0.75061 0.559835 0.828604 1192.37 504.927)" fill="#11ECE5"/>
<path id="Polygon 1_3" d="M1359.89 315.588L1193.42 506.947L1190.99 503.252L1359.89 315.588Z" fill="#11ECE5"/>
</g>
<g id="Group 1307">
<ellipse id="Ellipse 1_4" rx="4.78528" ry="2.20256" transform="matrix(0.660745 -0.75061 0.559835 0.828604 239.503 190.211)" fill="#11ECE5"/>
<path id="Polygon 1_4" d="M407.026 0.871307L240.557 192.231L238.125 188.536L407.026 0.871307Z" fill="#11ECE5"/>
</g>
<g id="Group 1321">
<ellipse id="Ellipse 1_5" rx="1.89472" ry="2.20256" transform="matrix(0.660745 -0.75061 0.559835 0.828604 61.964 360.619)" fill="#11ECE5"/>
<path id="Polygon 1_5" d="M128.516 285.98L63.123 362.518L60.6686 358.848L128.516 285.98Z" fill="#11ECE5"/>
</g>
<g id="Group 1325">
<ellipse id="Ellipse 1_6" rx="1.89472" ry="2.20256" transform="matrix(0.660745 -0.75061 0.559835 0.828604 959.972 309.602)" fill="#11ECE5"/>
<path id="Polygon 1_6" d="M1026.52 234.964L961.128 311.501L958.674 307.831L1026.52 234.964Z" fill="#11ECE5"/>
</g>
<g id="Group 1331">
<ellipse id="Ellipse 1_7" rx="1.89472" ry="2.20256" transform="matrix(0.660745 -0.75061 0.559835 0.828604 959.972 309.602)" fill="#11ECE5"/>
<path id="Polygon 1_7" d="M1026.52 234.964L961.128 311.501L958.674 307.831L1026.52 234.964Z" fill="#11ECE5"/>
</g>
<g id="Group 1337">
<ellipse id="Ellipse 1_8" rx="1.48301" ry="1.72395" transform="matrix(0.660745 -0.75061 0.559835 0.828604 277.298 617.884)" fill="#11ECE5"/>
<path id="Polygon 1_8" d="M329.387 559.463L278.203 619.37L276.282 616.497L329.387 559.463Z" fill="#11ECE5"/>
</g>
<g id="Group 1341">
<ellipse id="Ellipse 1_9" rx="1.48301" ry="1.72395" transform="matrix(0.660745 -0.75061 0.559835 0.828604 277.298 617.884)" fill="#11ECE5"/>
<path id="Polygon 1_9" d="M329.387 559.463L278.203 619.37L276.282 616.497L329.387 559.463Z" fill="#11ECE5"/>
</g>
<g id="Group 1351">
<ellipse id="Ellipse 1_10" rx="1.48301" ry="1.72395" transform="matrix(0.660745 -0.75061 0.559835 0.828604 583.102 614.557)" fill="#11ECE5"/>
<path id="Polygon 1_10" d="M635.193 556.136L584.01 616.043L582.089 613.17L635.193 556.136Z" fill="#11ECE5"/>
</g>
<g id="Group 1355">
<ellipse id="Ellipse 1_11" rx="1.48301" ry="1.72395" transform="matrix(0.660745 -0.75061 0.559835 0.828604 583.102 614.557)" fill="#11ECE5"/>
<path id="Polygon 1_11" d="M635.193 556.136L584.01 616.043L582.089 613.17L635.193 556.136Z" fill="#11ECE5"/>
</g>
<g id="Group 1375">
<ellipse id="Ellipse 1_12" rx="1.89472" ry="2.20256" transform="matrix(0.660745 -0.75061 0.559835 0.828604 378.708 268.495)" fill="#11ECE5"/>
<path id="Polygon 1_12" d="M445.261 193.857L379.867 270.395L377.413 266.725L445.261 193.857Z" fill="#11ECE5"/>
</g>
<g id="Group 1411">
<ellipse id="Ellipse 1_13" rx="1.89472" ry="2.20256" transform="matrix(0.660745 -0.75061 0.559835 0.828604 704.705 418.496)" fill="#11ECE5"/>
<path id="Polygon 1_13" d="M771.261 343.857L705.867 420.395L703.413 416.725L771.261 343.857Z" fill="#11ECE5"/>
</g>
<g id="Group 1417">
<ellipse id="Ellipse 1_14" rx="1.89472" ry="2.20256" transform="matrix(0.660745 -0.75061 0.559835 0.828604 704.705 418.496)" fill="#11ECE5"/>
<path id="Polygon 1_14" d="M771.261 343.857L705.867 420.395L703.413 416.725L771.261 343.857Z" fill="#11ECE5"/>
</g>
<g id="Group 1449">
<ellipse id="Ellipse 1_15" rx="1.89472" ry="2.20256" transform="matrix(0.660745 -0.75061 0.559835 0.828604 960.89 502.992)" fill="#11ECE5"/>
<path id="Polygon 1_15" d="M1027.44 428.354L962.048 504.892L959.594 501.221L1027.44 428.354Z" fill="#11ECE5"/>
</g>
<g id="Group 1661">
<ellipse id="Ellipse 1_16" rx="1.89472" ry="2.20256" transform="matrix(0.660745 -0.75061 0.559835 0.828604 470.71 434.495)" fill="#11ECE5"/>
<path id="Polygon 1_16" d="M537.261 359.857L471.868 436.395L469.413 432.725L537.261 359.857Z" fill="#11ECE5"/>
</g>
<g id="Group 1455">
<ellipse id="Ellipse 1_17" rx="1.89472" ry="2.20256" transform="matrix(0.660745 -0.75061 0.559835 0.828604 960.89 502.992)" fill="#11ECE5"/>
<path id="Polygon 1_17" d="M1027.44 428.354L962.048 504.892L959.594 501.221L1027.44 428.354Z" fill="#11ECE5"/>
</g>
<g id="Group 1664">
<ellipse id="Ellipse 1_18" rx="1.89472" ry="2.20256" transform="matrix(0.660745 -0.75061 0.559835 0.828604 470.71 434.495)" fill="#11ECE5"/>
<path id="Polygon 1_18" d="M537.261 359.857L471.868 436.395L469.413 432.725L537.261 359.857Z" fill="#11ECE5"/>
</g>
<g id="Group 1531">
<ellipse id="Ellipse 1_19" rx="3.41886" ry="2.20256" transform="matrix(0.660745 -0.75061 0.559835 0.828604 733.564 618.748)" fill="#11ECE5"/>
<path id="Polygon 1_19" d="M853.352 483.63L734.664 620.711L732.221 617.028L853.352 483.63Z" fill="#11ECE5"/>
</g>
<g id="Group 1665">
<ellipse id="Ellipse 1_20" rx="3.41886" ry="2.20256" transform="matrix(0.660745 -0.75061 0.559835 0.828604 1109.53 300.983)" fill="#11ECE5"/>
<path id="Polygon 1_20" d="M1229.32 165.865L1110.63 302.946L1108.19 299.263L1229.32 165.865Z" fill="#11ECE5"/>
</g>
<g id="Group 1537">
<ellipse id="Ellipse 1_21" rx="3.41886" ry="2.20256" transform="matrix(0.660745 -0.75061 0.559835 0.828604 733.564 618.748)" fill="#11ECE5"/>
<path id="Polygon 1_21" d="M853.352 483.63L734.664 620.711L732.221 617.028L853.352 483.63Z" fill="#11ECE5"/>
</g>
<g id="Group 1666">
<ellipse id="Ellipse 1_22" rx="3.41886" ry="2.20256" transform="matrix(0.660745 -0.75061 0.559835 0.828604 1109.53 300.983)" fill="#11ECE5"/>
<path id="Polygon 1_22" d="M1229.32 165.865L1110.63 302.946L1108.19 299.263L1229.32 165.865Z" fill="#11ECE5"/>
</g>
<g id="Group 1579">
<ellipse id="Ellipse 1_23" rx="4.72333" ry="2.20256" transform="matrix(0.660745 -0.75061 0.559835 0.828604 3.99901 583.413)" fill="#11ECE5"/>
<path id="Polygon 1_23" d="M169.36 396.531L5.05782 585.43L2.62492 581.736L169.36 396.531Z" fill="#11ECE5"/>
</g>
</svg>
